<svg width="27" height="25" viewBox="0 0 27 25" fill="none" xmlns="http://www.w3.org/2000/svg">
<path fill-rule="evenodd" clip-rule="evenodd" d="M0 0.792267V17.842H26.7925V0.792267H0ZM9.74272 11.4485H17.0498V12.6663H9.74272V11.4485ZM6.69812 5.66361H4.87136V7.49038H6.69812V5.66361ZM4.87136 11.1439H6.69812V12.9707H4.87136V11.1439ZM11.5695 5.66361H9.74272V7.49038H11.5695V5.66361ZM15.223 5.66361H17.0498V7.49038H15.223V5.66361ZM21.9211 5.66361H20.0944V7.49038H21.9211V5.66361ZM20.0944 11.1439H21.9211V12.9707H20.0944V11.1439Z" fill="#7A564D"/>
<path d="M13.3961 23.2777L10.9604 20.842L10.0993 21.7032L13.3961 25L16.6929 21.7032L15.8317 20.842L13.3961 23.2777Z" fill="#7A564D"/>
</svg>
