<svg width="27" height="26" viewBox="0 0 27 26" fill="none" xmlns="http://www.w3.org/2000/svg">
<path d="M13.3959 2.61844L15.8316 5.05412L16.6927 4.19298L13.3959 0.896149L10.0991 4.19298L10.9603 5.05412L13.3959 2.61844Z" fill="#7A564D"/>
<path fill-rule="evenodd" clip-rule="evenodd" d="M0 8.05411V25.1039H26.7925V8.05411H0ZM9.74272 18.7103H17.0498V19.9282H9.74272V18.7103ZM6.69812 12.9255H4.87136V14.7522H6.69812V12.9255ZM4.87136 18.4057H6.69812V20.2325H4.87136V18.4057ZM11.5695 12.9255H9.74272V14.7522H11.5695V12.9255ZM15.223 12.9255H17.0498V14.7522H15.223V12.9255ZM21.9211 12.9255H20.0944V14.7522H21.9211V12.9255ZM20.0944 18.4057H21.9211V20.2325H20.0944V18.4057Z" fill="#7A564D"/>
</svg>
