<svg width="688" height="140" viewBox="0 0 688 140" fill="none" xmlns="http://www.w3.org/2000/svg">
<g clip-path="url(#clip0_25_146)">
<path d="M146.682 57.3213H138.637C135.053 57.3213 133.108 59.1162 133.108 62.3622V76.6066C133.108 79.8527 135.091 81.6475 138.637 81.6475H146.682C150.266 81.6475 152.211 79.8527 152.211 76.6066V72.8259H146.873V76.3775C146.873 76.7212 146.797 77.0649 146.034 77.0649H139.247C138.523 77.0649 138.446 76.7212 138.446 76.3775V62.5913C138.446 62.2476 138.561 61.9039 139.247 61.9039H146.034C146.835 61.9039 146.873 62.2476 146.873 62.5913V66.1429H152.211V62.3622C152.211 59.1162 150.228 57.3213 146.682 57.3213Z" fill="white"/>
<path d="M171.428 57.3213H162.925C159.341 57.3213 157.397 59.1162 157.397 62.3622V76.6066C157.397 79.8527 159.379 81.6475 162.925 81.6475H171.428C175.012 81.6475 176.957 79.8527 176.957 76.6066V62.3622C176.957 59.1162 174.974 57.3213 171.428 57.3213ZM171.619 62.5913V76.3775C171.619 76.7212 171.542 77.0649 170.78 77.0649H163.535C162.811 77.0649 162.735 76.7212 162.735 76.3775V62.5913C162.735 62.2476 162.849 61.9039 163.535 61.9039H170.78C171.581 61.9039 171.619 62.2476 171.619 62.5913Z" fill="white"/>
<path d="M187.48 57.3213H182.142V81.6475H198.843V77.0649H187.48V57.3213Z" fill="white"/>
<path d="M217.03 57.3213H208.528C204.943 57.3213 202.999 59.1162 202.999 62.3622V76.6066C202.999 79.8527 204.982 81.6475 208.528 81.6475H217.03C220.614 81.6475 222.559 79.8527 222.559 76.6066V62.3622C222.559 59.1162 220.576 57.3213 217.03 57.3213ZM217.259 62.5913V76.3775C217.259 76.7212 217.183 77.0649 216.42 77.0649H209.176C208.451 77.0649 208.375 76.7212 208.375 76.3775V62.5913C208.375 62.2476 208.489 61.9039 209.176 61.9039H216.42C217.221 61.9039 217.259 62.2476 217.259 62.5913Z" fill="white"/>
<path d="M246.695 67.5941V62.3622C246.695 59.1162 244.712 57.3213 241.166 57.3213H227.745V81.6475H233.083V72.635H237.353L242.005 81.6475H247.839L243.072 72.444C245.436 71.8712 246.733 70.1909 246.733 67.5941H246.695ZM233.083 61.8658H240.556C241.28 61.8658 241.357 62.2094 241.357 62.5531V67.4795C241.357 67.8232 241.242 68.1669 240.556 68.1669H233.083V61.8658Z" fill="white"/>
<path d="M260.078 57.3213L251.156 81.6475H256.799L258.744 75.881H267.132L269.077 81.6475H274.91L265.95 57.3213H260.116H260.078ZM265.607 71.2984H260.269L262.938 63.3933L265.607 71.2984Z" fill="white"/>
<path d="M292.755 57.3213H279.066V81.6475H292.755C296.339 81.6475 298.283 79.8527 298.283 76.6066V62.3622C298.283 59.1162 296.301 57.3213 292.755 57.3213ZM284.366 61.9039H292.106C292.831 61.9039 292.907 62.2476 292.907 62.5913V76.3775C292.907 76.7212 292.793 77.0649 292.106 77.0649H284.366V61.9039Z" fill="white"/>
<path d="M317.424 57.3213H308.921C305.337 57.3213 303.393 59.1162 303.393 62.3622V76.6066C303.393 79.8527 305.375 81.6475 308.921 81.6475H317.424C321.008 81.6475 322.953 79.8527 322.953 76.6066V62.3622C322.953 59.1162 320.97 57.3213 317.424 57.3213ZM317.615 62.5913V76.3775C317.615 76.7212 317.5 77.0649 316.776 77.0649H309.531C308.807 77.0649 308.731 76.7212 308.731 76.3775V62.5913C308.731 62.2476 308.845 61.9039 309.531 61.9039H316.776C317.577 61.9039 317.615 62.2476 317.615 62.5913Z" fill="white"/>
<path d="M349.834 67.6704L343.161 66.3338C341.979 66.1047 341.865 65.8756 341.865 65.2264V62.515C341.865 62.1713 341.941 61.7894 342.704 61.7894H348.919C349.605 61.7894 349.758 62.0949 349.758 62.515V65.3409H355.019V62.3622C355.019 59.1162 353.037 57.3213 349.491 57.3213H342.094C338.509 57.3213 336.565 59.1162 336.565 62.3622V65.7992C336.565 69.3507 339.234 70.3818 342.132 70.9547L348.804 72.3295C349.948 72.5586 350.101 72.7495 350.101 73.3988V76.4539C350.101 76.8739 349.948 77.1794 349.3 77.1794H342.589C341.903 77.1794 341.789 76.8739 341.789 76.4539V73.3988H336.527V76.6448C336.527 79.8908 338.509 81.6857 342.055 81.6857H349.91C353.494 81.6857 355.439 79.8908 355.439 76.6448V72.9023C355.439 69.3507 352.77 68.3197 349.834 67.7468V67.6704Z" fill="white"/>
<path d="M378.583 57.3213H359.099V61.8658H366.191V81.6475H371.491V61.8658H378.583V57.3213Z" fill="white"/>
<path d="M386.743 57.3213L377.82 81.6475H383.463L385.408 75.881H393.796L395.741 81.6475H401.575L392.614 57.3213H386.781H386.743ZM392.271 71.2984H386.933L389.602 63.3933L392.271 71.2984Z" fill="white"/>
<path d="M400.736 61.8658H407.828V81.6475H413.166V61.8658H420.258V57.3213H400.736V61.8658Z" fill="white"/>
<path d="M423.995 81.6475H441.572V77.0649H429.333V71.4893H439.437V66.983H429.333V61.9039H441.572V57.3213H423.995V81.6475Z" fill="white"/>
<path d="M469.673 76.3775C469.673 76.7212 469.559 77.0649 468.872 77.0649H461.742C460.98 77.0649 460.903 76.7212 460.903 76.3775V57.3213H455.565V76.6066C455.565 79.8527 457.548 81.6475 461.094 81.6475H469.482C473.067 81.6475 475.011 79.8527 475.011 76.6066V57.3213H469.673V76.3775Z" fill="white"/>
<path d="M495.601 72.9023L485.497 57.3213H480.159V81.6475H485.23V65.6083L495.639 81.6475H500.672V57.3213H495.601V72.9023Z" fill="white"/>
<path d="M511.196 57.3213H505.858V81.6475H511.196V57.3213Z" fill="white"/>
<path d="M526.714 75.1554L521.186 57.3213H515.352L523.816 81.6475H529.536L537.962 57.3213H532.319L526.714 75.1554Z" fill="white"/>
<path d="M542.118 81.6475H559.696V77.0649H547.457V71.4893H557.561V66.983H547.457V61.9039H559.696V57.3213H542.118V81.6475Z" fill="white"/>
<path d="M583.641 67.5941V62.3622C583.641 59.1162 581.658 57.3213 578.112 57.3213H564.691V81.6475H570.029V72.635H574.299L578.951 81.6475H584.785L580.018 72.444C582.382 71.8712 583.679 70.1909 583.679 67.5941H583.641ZM569.991 61.8658H577.464C578.188 61.8658 578.265 62.2094 578.265 62.5531V67.4795C578.265 67.8232 578.15 68.1669 577.464 68.1669H569.991V61.8658Z" fill="white"/>
<path d="M601.867 67.6704L595.194 66.3338C594.012 66.1047 593.898 65.8756 593.898 65.2264V62.515C593.898 62.1713 593.974 61.7894 594.736 61.7894H600.952C601.638 61.7894 601.79 62.0949 601.79 62.515V65.3409H607.052V62.3622C607.052 59.1162 605.069 57.3213 601.523 57.3213H594.126C590.542 57.3213 588.598 59.1162 588.598 62.3622V65.7992C588.598 69.3507 591.267 70.3818 594.165 70.9547L600.837 72.3295C601.981 72.5586 602.133 72.7495 602.133 73.3988V76.4539C602.133 76.8739 601.981 77.1794 601.333 77.1794H594.622C593.936 77.1794 593.821 76.8739 593.821 76.4539V73.3988H588.56V76.6448C588.56 79.8908 590.542 81.6857 594.088 81.6857H601.943C605.527 81.6857 607.472 79.8908 607.472 76.6448V72.9023C607.472 69.3507 604.803 68.3197 601.905 67.7468L601.867 67.6704Z" fill="white"/>
<path d="M617.766 57.3213H612.428V81.6475H617.766V57.3213Z" fill="white"/>
<path d="M621.465 61.8658H628.519V81.6475H633.857V61.8658H640.949V57.3213H621.465V61.8658Z" fill="white"/>
<path d="M659.937 57.3213L654.294 67.8996L648.613 57.3213H642.779L651.587 73.1314V81.6475H656.925V73.1314L665.733 57.3213H659.937Z" fill="white"/>
<path d="M74.9235 96.923C73.2458 97.0758 71.3775 97.4959 69.8905 97.4577C68.4035 97.4577 66.5351 97.0758 64.8575 96.923C64.5906 96.923 64.3999 97.0758 64.3999 97.0758C63.4086 99.1762 69.0898 100.36 69.8905 100.322C70.6912 100.322 76.4106 99.2143 75.4192 97.0758C75.4192 97.0758 75.2285 96.8848 74.9616 96.923H74.9235Z" fill="white"/>
<path d="M102.529 67.0595C102.3 65.1119 100.584 64.539 99.0973 64.0808C94.7887 62.706 92.9585 64.4245 91.7002 64.539C93.0729 62.9733 92.7297 60.3764 90.9376 60.0709C87.5823 59.5363 88.4974 63.1642 89.2981 64.8827C89.8319 65.952 90.4801 67.7087 92.1578 67.5941C94.1786 67.4414 93.8736 65.7611 96.8095 65.5319C96.8095 65.5319 100.47 65.7993 100.394 66.9831C100.241 68.7016 98.3728 69.3508 97.1145 69.7709C95.2843 70.3819 93.1873 69.4654 91.7002 71.1839C91.2427 71.7567 90.8614 72.4441 91.0139 73.0933C91.1664 73.7425 91.2427 73.4752 93.2635 73.628C92.1196 75.0409 91.4714 77.1795 91.4333 79.0126C91.3571 84.0535 90.0988 87.9487 90.5945 89.6672C93.0347 86.7267 92.9966 82.2968 93.3779 78.7834C93.6067 76.9504 94.2549 74.9264 95.17 73.5898C96.1994 72.024 98.144 71.9476 99.4404 70.9929C100.661 70.0764 102.605 68.5488 102.414 67.1359L102.529 67.0595Z" fill="white"/>
<path d="M62.036 81.533C63.4086 79.4326 64.8194 74.8881 64.0187 72.9405C62.6842 72.4058 61.0827 71.3747 60.1295 69.9236C59.1763 68.5106 58.6044 66.9449 56.9267 66.4866C55.7828 66.0665 54.5246 66.3338 53.6095 66.8303C52.1224 67.7086 51.7411 69.7708 51.5124 71.3748C51.398 74.7354 52.0462 79.6999 53.4951 82.8314C54.372 85.1609 56.3548 89.018 58.8331 92.6459C58.1468 86.8794 61.3115 83.0987 62.0741 81.533H62.036ZM57.6511 74.0861C57.0029 72.9023 55.2871 73.1314 54.4864 72.6732C53.19 71.833 53.2663 70.0381 54.4864 68.9307C56.0497 67.4795 60.0914 72.1003 59.2144 75.6901C58.8331 75.8046 58.6044 75.5755 57.6893 74.048L57.6511 74.0861Z" fill="white"/>
<path d="M85.9809 66.7921C85.0658 66.2956 83.7694 66.0665 82.6637 66.4484C80.986 66.9067 80.4522 68.4724 79.4227 69.8854C78.4695 71.3366 76.8681 72.3677 75.5336 72.9023C74.6947 74.8499 76.1436 79.3944 77.4781 81.4948C78.2407 83.0605 81.4054 86.8412 80.7191 92.6077C83.1975 88.9798 85.2183 85.1227 86.019 82.7932C87.4679 79.6617 88.1543 74.6972 88.0017 71.3366C87.8111 69.6944 87.3917 67.6322 85.9047 66.7921H85.9809ZM85.0658 72.7114C84.3032 73.1696 82.5874 72.9405 81.9011 74.1243C80.986 75.6519 80.7572 75.881 80.3759 75.7665C79.499 72.1767 83.5406 67.5559 85.1039 69.007C86.3241 70.1145 86.3622 71.9094 85.1039 72.7495L85.0658 72.7114Z" fill="white"/>
<path d="M69.8905 78.4779C68.2891 78.4779 67.4503 79.8527 65.9633 81.4184C63.4086 84.2062 58.1468 91.1566 61.9597 94.479C63.6374 95.9302 65.887 96.9613 68.9373 96.0065C69.6999 95.4719 69.2805 93.9062 68.8611 93.2188C67.4122 91.3475 65.2007 92.0731 64.5525 91.1566C63.9424 90.2401 64.3618 89.5526 64.705 89.0944C65.2388 88.4452 66.1158 88.5979 66.8402 88.7889C68.1366 89.0944 69.0136 89.629 69.8524 90.431C70.6531 89.629 71.5682 89.0944 72.8265 88.7889C73.5128 88.5979 74.4279 88.407 74.9236 89.0944C75.3049 89.5526 75.6862 90.2401 75.0761 91.1566C74.4279 92.0731 72.2545 91.3475 70.8056 93.2188C70.4244 93.9062 69.9287 95.4719 70.6913 96.0065C73.7797 96.9231 75.9912 95.9302 77.6689 94.479C81.5199 91.1948 76.2581 84.2062 73.6653 81.4184C72.2164 79.8909 71.3394 78.5161 69.7762 78.4779H69.8905Z" fill="white"/>
<path d="M49.072 60.0709C47.3181 60.3764 46.9749 62.9732 48.3094 64.539C47.0893 64.3862 45.2591 62.7059 40.9124 64.0807C39.4254 64.539 37.7096 65.15 37.4808 67.0594C37.3283 68.5106 39.2347 70.0382 40.4548 70.9165C41.7131 71.8712 43.7339 71.9476 44.7634 73.5133C45.6404 74.85 46.3267 76.874 46.5555 78.707C46.9368 82.2586 46.8987 86.6503 49.3389 89.5908C49.7965 87.8723 48.5382 83.9771 48.5001 78.9361C48.4619 77.0649 47.7756 74.9263 46.6699 73.5515C48.6907 73.3988 48.7288 73.6661 48.8814 73.0169C49.072 72.3677 48.6907 71.6803 48.2332 71.1075C46.7843 69.4272 44.6872 70.3055 42.8188 69.6945C41.5987 69.2744 39.6923 68.6252 39.5779 66.9067C39.5016 65.7228 43.162 65.4555 43.162 65.4555C46.0979 65.6846 45.7548 67.365 47.7756 67.5177C49.4533 67.6705 50.1396 65.8756 50.6734 64.8063C51.4741 63.126 52.3892 59.4599 48.9958 59.9945L49.072 60.0709Z" fill="white"/>
<path d="M28.9019 54.9155C28.9019 54.9155 29.1688 54.8773 29.3213 54.8391C29.3213 54.7627 29.3975 54.6864 29.3975 54.61C29.245 54.7246 29.0544 54.8009 28.9019 54.9155Z" fill="white"/>
<path d="M69.8523 22.8369C43.8102 22.8369 22.6105 44.0699 22.6105 70.1528C22.6105 96.2357 43.8102 117.469 69.8523 117.469C95.8944 117.469 117.094 96.2357 117.094 70.1528C117.094 44.0699 95.8944 22.8369 69.8523 22.8369ZM94.7124 102.537C93.5686 102.04 92.8822 100.895 92.6535 99.6345C92.3866 97.7633 93.4161 95.5865 94.3311 94.0972C95.5894 91.9968 98.4491 88.3307 101.728 85.9248C106.38 82.4496 109.659 81.4949 108.439 80.6929C107.6 80.1201 103.177 82.5641 102.3 83.0224C97.3433 85.5811 90.4801 93.0279 89.6794 98.527C89.1456 102.117 92.501 104.866 95.5894 105.019C88.383 110.366 79.499 113.535 69.8523 113.535C60.2057 113.535 51.3216 110.366 44.1152 105.019C47.2037 104.866 50.559 102.117 50.0252 98.527C49.2245 93.0279 42.3232 85.6192 37.4045 83.0224C36.5276 82.5641 32.1046 80.1201 31.2658 80.6929C30.0456 81.4949 33.3247 82.4496 37.9765 85.9248C41.2556 88.3688 44.0771 92.035 45.3354 94.0972C46.2886 95.5483 47.3181 97.7633 47.0512 99.6345C46.8605 100.895 46.0979 102.04 44.9922 102.537C43.7339 103.11 42.4376 102.995 41.1412 102.575C37.1758 99.0235 33.8204 94.7845 31.3801 90.011C34.3161 94.1353 38.2434 98.7944 40.4549 98.8707C44.039 99.0617 36.947 89.4763 32.1046 85.5047C30.9226 84.55 29.5881 83.4043 29.3212 81.6094C29.1305 80.311 29.7787 79.4327 31.0751 79.3945C33.0197 79.3181 38.0909 81.9531 38.1671 81.8767C29.3593 66.0666 42.8189 58.0851 37.252 54.61C35.4218 53.4643 31.647 54.4572 29.3593 54.8773C29.2068 54.8773 29.0543 54.9155 28.9399 54.9537C29.1305 54.8391 29.2831 54.7627 29.4356 54.6482C49.7202 42.886 53.3043 54.9537 59.5194 60.5292C60.5107 61.4458 64.8955 60.5292 65.7344 59.4981C66.8401 58.1615 69.0516 53.3879 66.5351 50.2183C63.1797 45.9411 49.9109 33.9498 37.0614 41.8931C44.9922 32.6514 56.7741 26.8085 69.8523 26.8085C82.9306 26.8085 94.7124 32.6514 102.643 41.8931C89.7557 33.9117 76.563 45.9411 73.1314 50.2183C70.653 53.3879 72.8264 58.1615 73.9321 59.4981C74.8091 60.5292 79.1939 61.4458 80.1853 60.5292C86.3622 54.9537 89.9844 42.886 110.269 54.6482C110.422 54.7627 110.612 54.8391 110.765 54.9537C110.612 54.9537 110.498 54.9155 110.345 54.8773C108.019 54.4572 104.245 53.4643 102.453 54.61C96.8858 58.0851 110.307 66.0666 101.538 81.8767C101.614 81.9913 106.685 79.3563 108.63 79.3945C109.888 79.4709 110.574 80.311 110.383 81.6094C110.117 83.4043 108.744 84.55 107.6 85.5047C102.72 89.5145 95.6657 99.0999 99.2117 98.8707C101.423 98.7562 105.389 94.0972 108.325 89.9728C105.846 94.7464 102.529 98.9853 98.5635 102.537C97.3052 102.957 95.9707 103.072 94.7124 102.499V102.537Z" fill="white"/>
</g>
<defs>
<clipPath id="clip0_25_146">
<rect width="688" height="140" fill="white"/>
</clipPath>
</defs>
</svg>
